<?xml version="1.0" standalone="no"?>
<!DOCTYPE svg PUBLIC "-//W3C//DTD SVG 20010904//EN"
 "http://www.w3.org/TR/2001/REC-SVG-20010904/DTD/svg10.dtd">
<svg version="1.0" xmlns="http://www.w3.org/2000/svg"
 width="600.000000pt" height="532.000000pt" viewBox="0 0 600.000000 532.000000"
 preserveAspectRatio="xMidYMid meet">

<g transform="translate(0.000000,532.000000) scale(0.100000,-0.100000)"
fill="#000000" stroke="none">
<path d="M2906 4881 c-3 -5 12 -25 34 -45 22 -20 40 -39 40 -43 0 -5 -55 -25
-123 -46 -133 -42 -337 -126 -462 -191 -72 -37 -192 -111 -205 -126 -3 -3 -27
-24 -55 -45 -88 -70 -126 -108 -199 -200 -75 -93 -157 -221 -171 -265 -4 -14
-11 -30 -16 -36 -17 -21 -48 -141 -60 -228 -12 -93 -3 -172 26 -240 7 -17 26
-62 41 -101 129 -324 328 -581 593 -770 69 -49 111 -85 111 -96 0 -18 -82 -55
-145 -65 -35 -6 -141 -29 -205 -44 -25 -7 -56 -14 -70 -17 -75 -15 -315 -92
-390 -125 -84 -37 -175 -82 -185 -93 -5 -6 -28 -24 -50 -40 -58 -41 -176 -165
-243 -253 -33 -44 -98 -155 -149 -257 -50 -99 -106 -205 -125 -235 -18 -30
-47 -77 -63 -103 -68 -111 -156 -238 -236 -342 -159 -207 -267 -385 -288 -476
-13 -56 -14 -144 -1 -190 13 -47 52 -83 79 -74 24 7 27 37 9 96 -11 40 0 143
24 211 11 31 28 37 28 11 0 -10 14 -60 32 -112 38 -111 77 -161 127 -161 45 0
59 33 36 86 -60 138 -66 159 -66 233 1 78 19 125 45 115 7 -3 24 -28 37 -57
33 -71 146 -264 181 -310 45 -57 109 -62 129 -10 8 21 2 34 -34 86 -83 118
-155 275 -141 310 3 9 28 11 87 8 81 -3 82 -4 147 -54 36 -28 78 -64 95 -80
38 -36 72 -45 92 -24 23 23 1 69 -65 137 -30 30 -64 67 -76 81 -38 44 -73 61
-169 80 -101 20 -131 42 -143 105 -7 36 37 139 114 267 26 43 52 86 57 95 6 9
28 44 49 77 21 33 73 125 114 205 41 80 88 165 105 190 80 119 229 268 332
332 101 62 483 196 705 248 52 12 109 26 125 32 51 16 197 38 256 38 119 0
349 -45 436 -86 60 -29 63 -35 83 -194 17 -137 78 -514 95 -590 67 -305 141
-602 164 -663 5 -12 21 -62 36 -112 15 -49 52 -162 81 -250 30 -88 71 -209 90
-270 19 -60 41 -125 49 -143 8 -18 15 -39 15 -47 0 -12 15 -15 65 -15 l65 0
-20 37 c-11 21 -20 43 -20 50 0 6 -11 33 -25 59 -14 26 -25 51 -25 56 0 5 -9
28 -20 50 -11 23 -20 50 -20 59 0 10 -4 20 -10 24 -5 3 -14 20 -19 38 -5 18
-21 64 -36 102 -32 84 -140 409 -160 480 -8 28 -21 75 -30 105 -102 356 -191
801 -210 1052 -11 133 10 139 77 24 90 -153 284 -426 338 -476 4 -3 46 -50 95
-105 171 -191 394 -402 485 -459 94 -58 316 -169 425 -211 39 -15 88 -36 110
-46 22 -10 83 -34 135 -53 371 -136 409 -153 435 -193 20 -29 18 -48 -20 -178
-19 -65 -20 -172 -3 -192 6 -7 23 -13 38 -13 l27 0 7 102 c4 61 12 106 19 110
7 4 8 8 3 8 -6 0 1 10 13 21 19 18 25 19 32 8 5 -8 6 -30 2 -49 -3 -19 -6 -47
-5 -62 1 -15 -3 -30 -8 -33 -15 -9 -12 -72 5 -104 23 -45 95 -58 95 -17 0 30
20 86 30 86 7 0 14 -27 24 -101 7 -47 25 -69 57 -69 43 0 52 32 45 155 -3 55
-8 115 -12 134 -6 36 -37 100 -52 110 -5 3 -23 33 -40 66 -38 76 -74 112 -126
125 -22 6 -48 14 -56 17 -8 3 -18 6 -22 5 -4 -1 -51 16 -106 38 -54 21 -112
42 -128 46 -16 4 -34 11 -41 16 -6 5 -49 22 -95 37 -45 16 -139 47 -208 71
-339 115 -703 369 -1016 710 -145 157 -139 151 -238 278 -158 204 -186 249
-186 303 0 26 5 51 12 55 7 4 113 11 237 15 225 7 334 19 423 45 26 8 54 14
63 14 31 0 151 66 231 127 101 77 177 158 241 253 68 103 79 132 154 410 61
223 70 463 30 745 -28 198 -107 355 -273 541 -25 28 -60 77 -78 109 -36 64
-38 60 29 97 17 9 31 24 31 33 0 19 -68 21 -133 3 -41 -11 -47 -9 -111 26
-147 79 -331 146 -404 146 -15 0 -47 10 -72 21 -66 30 -203 29 -302 -3 -64
-20 -91 -23 -213 -22 -130 2 -144 4 -191 28 -52 26 -98 34 -108 17z m904 -123
c184 -34 294 -76 308 -116 2 -8 -26 -26 -73 -48 -105 -48 -135 -80 -135 -142
1 -32 9 -60 25 -87 14 -22 28 -47 32 -55 54 -120 237 -188 474 -174 132 7 144
2 154 -64 3 -20 19 -64 35 -97 35 -72 48 -163 56 -427 7 -201 -9 -356 -48
-473 -23 -69 -136 -287 -158 -305 -4 -3 -21 -26 -38 -52 -42 -61 -133 -154
-197 -199 -54 -38 -152 -88 -225 -114 -121 -43 -519 -70 -668 -44 -96 17 -123
45 -151 156 -26 101 -49 153 -67 153 -7 0 -30 -7 -51 -16 -21 -9 -51 -23 -68
-29 -16 -7 -41 -18 -55 -23 -14 -6 -45 -19 -70 -30 -66 -27 -178 -59 -235 -67
-48 -6 -54 -4 -125 43 -159 103 -352 285 -466 437 -128 171 -189 293 -249 500
-25 87 -24 295 4 393 63 226 228 409 493 546 198 101 246 104 368 22 30 -20
73 -41 95 -47 22 -6 65 -20 97 -30 85 -29 381 -29 505 1 142 33 218 80 230
142 7 33 16 35 50 8 36 -28 50 -25 86 16 18 20 49 45 70 55 20 11 37 21 37 24
0 10 -57 33 -97 39 -37 5 -43 4 -43 -11 -1 -41 -15 -47 -61 -25 -54 26 -122
51 -169 62 -50 12 -157 48 -181 60 -55 30 59 42 147 15 64 -19 62 -19 76 11
12 25 12 25 97 19 47 -4 133 -16 191 -27z m-543 -97 c77 -20 133 -42 133 -52
0 -10 -540 -23 -578 -14 -87 19 -31 68 98 86 82 11 265 1 347 -20z m1036 -189
c42 -30 67 -59 67 -76 0 -16 -97 -2 -181 25 -139 46 -146 55 -66 92 49 23 54
23 92 9 22 -8 61 -31 88 -50z m-1228 42 c143 -6 151 -7 178 -32 60 -57 30 -67
-193 -66 -155 0 -168 2 -222 26 -62 29 -102 63 -92 79 4 7 37 9 93 5 47 -3
154 -8 236 -12z m1057 -149 c30 -14 65 -35 77 -48 20 -19 74 -97 68 -97 -13 1
-134 43 -158 56 -58 30 -95 85 -72 107 11 12 29 8 85 -18z m-1076 -1851 c29
-8 47 -49 34 -74 -14 -27 -48 -33 -134 -28 -104 7 -155 45 -103 77 41 26 149
40 203 25z"/>
<path d="M2898 4125 c-31 -5 -63 -16 -70 -22 -6 -7 -26 -13 -44 -13 -27 0 -65
-24 -53 -34 10 -9 188 -16 193 -7 9 14 717 25 811 12 125 -18 246 -66 371
-147 54 -36 143 -150 183 -237 41 -85 99 -127 156 -113 33 8 32 29 -2 51 -46
29 -86 79 -128 162 -73 144 -203 244 -385 295 -121 35 -178 48 -245 58 -87 13
-708 9 -787 -5z"/>
<path d="M2594 4077 c-3 -8 -4 -45 -2 -83 l3 -69 41 -3 c62 -5 69 11 40 94
-21 59 -28 69 -50 72 -16 2 -28 -2 -32 -11z"/>
<path d="M3423 3953 c-7 -2 -13 -15 -13 -27 0 -22 3 -23 148 -29 150 -6 180
-12 338 -68 94 -34 117 -36 112 -12 -6 30 -128 81 -295 122 -77 20 -256 28
-290 14z"/>
</g>
</svg>
